<svg xmlns="http://www.w3.org/2000/svg" width="220" height="131.741" xmlns:v="https://vecta.io/nano"><defs><linearGradient id="A"><stop stop-color="#8f5e25" offset="0"/><stop stop-color="#fbf4a1" offset=".5"/><stop stop-color="#8f5e25" offset="1"/></linearGradient></defs><path d="M95 8.539L53 22.986V73.27c-1.832-.864-4.27-1.001-6.694-.193-4.192 1.397-6.74 5.078-5.692 8.222s5.295 4.559 9.487 3.162c3.742-1.247 6.166-4.314 5.899-7.195V32l36-12.397v32.681c-1.835-.876-4.286-1.019-6.722-.207-4.192 1.397-6.74 5.078-5.692 8.222s5.295 4.559 9.487 3.162c3.525-1.175 5.878-3.965 5.918-6.692H95V8.539zM19 9v43c-1.869-.892-4.481-.971-6.963-.143-4.269 1.423-6.865 5.172-5.798 8.374s5.393 4.644 9.663 3.221c3.59-1.197 6.047-4.038 6.087-6.816H22V23s12.926 3.741 17 18c0-16.296-14-19-20-32zm18.423 70H2v2h35.476a7.75 7.75 0 0 1-.053-2zM98 81v-2H58.9a8.66 8.66 0 0 1-.591 2H98zM5.078 64H2v2h5.87c-1.081-.501-2.028-1.176-2.792-2zM98 66v-2h-3.769c-.978.804-2.112 1.487-3.377 2H98zm-19.599-2H59v2h22.155a8.74 8.74 0 0 1-2.754-2zM21.09 64a13.4 13.4 0 0 1-3.433 2H50v-2H21.09zM25 49h25v2H25zm-13.875 0H2v2h5.25c1.106-.825 2.395-1.508 3.839-1.99.012-.004.024-.006.036-.01zM59 51h21.822a13.5 13.5 0 0 1 3.507-1.769l.796-.231H59v2zM32.25 34H25v2h8.595c-.427-.712-.877-1.378-1.345-2zM2 34h14v2H2zm57 2h30v-2H59.406l-.406.14zm-17.449 0H50v-2h-8.898l.449 2zm-8.817-15h18.028a2.99 2.99 0 0 1 1.263-.851L55.366 19h-24.68l2.048 2zM2 19h14v2H2z" transform="matrix(.941663 0 0 .941663 63.116673 -8.040863)" fill="#fce38f"/><path d="M26.28 34.08c.36 0 1.12.16 1.12 1.4v3.16c0 1.24-.76 1.4-1.12 1.4h-13.2c-1.76 0-3.28-.24-4.48-.68a6.55 6.55 0 0 1-3.12-2.24c-.8-1-1.36-2.32-1.72-3.92-.36-1.56-.56-3.48-.56-5.72V8.44c0-1.28.8-1.4 1.16-1.4h3.68c.32 0 1.12.12 1.12 1.4v19.72c0 1.2.04 2.2.2 3 .12.72.36 1.32.68 1.76.28.44.68.72 1.16.88.56.2 1.24.28 2.08.28h13zM60.929 7.04c.32 0 .6.2.72.52.08.32.04.64-.12.92l-12.12 21.4v8.76c0 1.24-.8 1.36-1.12 1.36h-3.68c-.32 0-1.12-.12-1.12-1.36v-8.76l-12-21.4a1.15 1.15 0 0 1-.12-.88c.08-.36.36-.56.72-.56h4.56c.36 0 .84.12 1.16.76l8.72 16 8.8-16.04c.32-.6.8-.72 1.16-.72h4.44zm38.329 31.24c.16.24.2.56.16.96-.08.48-.44.8-.92.8h-4.4c-.36 0-.64-.08-.84-.24-.16-.12-.28-.32-.44-.56l-7.24-12.84h-8.44v12.24c0 1.24-.76 1.4-1.12 1.4h-3.64c-.36 0-1.16-.16-1.16-1.4v-16.8c0-1.24.8-1.36 1.16-1.36h17.4c1.04 0 1.72-.28 2.12-.88.44-.6.64-1.56.64-2.88s-.2-2.28-.64-2.88c-.4-.6-1.08-.88-2.12-.88h-17.4c-.36 0-1.16-.12-1.16-1.36V8.44c0-1.28.8-1.4 1.16-1.4h18.44c2.72 0 4.72.84 5.92 2.56 1.08 1.64 1.68 3.96 1.76 7v.24c-.08 3.08-.68 5.4-1.76 7-1 1.36-2.52 2.2-4.48 2.44zm14.529-31.24c.32 0 1.12.16 1.12 1.4v30.2c0 1.24-.8 1.4-1.12 1.4h-3.68c-.32 0-1.12-.16-1.12-1.4V8.44c0-1.24.8-1.4 1.12-1.4h3.68zm29.809 19.24l6.92 12c.16.2.2.52.16.92-.04.52-.36.84-.92.84h-4.32c-.4 0-.68-.08-.84-.24-.16-.12-.32-.32-.44-.56l-6.24-10.96c-.44-.8-.88-1.32-1.32-1.56-.48-.28-1.2-.4-2.16-.4h-4.04v12.32c0 1.24-.8 1.4-1.12 1.4h-3.68c-.32 0-1.16-.16-1.16-1.4V8.44c0-1.28.84-1.4 1.16-1.4h3.68c.32 0 1.12.12 1.12 1.4V20.4h3.68c.52 0 .96-.04 1.28-.08s.6-.12.84-.24c.2-.12.44-.32.64-.56l.68-1 6.04-10.68c.12-.28.28-.44.44-.56.16-.16.44-.24.88-.24h3.96c.48 0 .8.24.92.68.04.36 0 .68-.12.96l-6.6 11.6-1.08 1.8-.76 1.04c.8.76 1.6 1.84 2.4 3.16zm35.969-5.96c2.08 0 3.68.76 4.76 2.2 1.04 1.44 1.56 3.48 1.56 6.08v3.52c0 2.32-.52 4.2-1.52 5.64-1.04 1.48-2.68 2.24-4.88 2.24h-18.04c-.36 0-1.16-.12-1.16-1.36v-3.2c0-1.24.8-1.36 1.16-1.36h17.08c.68 0 .92-.28 1.08-.52.24-.4.36-.96.36-1.68v-3.44c0-1.96-.8-2.2-1.4-2.2h-12c-1.68 0-3.52-.24-4.76-1.88-1-1.4-1.56-3.64-1.56-6.4v-3.04c0-2.32.52-4.24 1.56-5.68 1.04-1.48 2.64-2.2 4.84-2.2h17.24c.32 0 1.12.12 1.12 1.36v3.2c0 1.24-.8 1.36-1.12 1.36h-16.28c-.68 0-.92.28-1.08.52-.2.4-.32.96-.32 1.68v2.96c0 1.96.76 2.2 1.36 2.2h12z" transform="matrix(1.204259 0 0 1.204259 -3.853629 83.522026)" fill="url(#A)"/></svg>